# xmcd
#
# Track frame offsets:
#	150
#	16292
#	28710
#	50810
#	67087
#	86302
#	97595
#	113077
#	124510
#	135595
#	148312
#	158734
#	170967
#	195615
#
# Disc length: 2750 seconds
#
# Revision: 1
# Processed by: cddbd v1.5PL3 Copyright (c) Steve Scherf et al.
# Submitted via: EasyCDDAExtractor 6.5.0.1
#
DISCID=be0abc0e
DTITLE=Scotty Spenner - the first thing smokin'
DYEAR=1996
DGENRE=Blues
TTITLE0=Red Rooster
TTITLE1=Sunnyland Blues
TTITLE2=Railroad Station Blues
TTITLE3=Part-time Fool
TTITLE4=Bleeding Heart
TTITLE5=Rag Medley
TTITLE6=(On the) Road So Long
TTITLE7=Diddy Wa Diddy
TTITLE8=Walkin' My Troubles Away
TTITLE9=Big Snow Blues
TTITLE10=Now I'm Gone
TTITLE11=Frogs for Snakes
TTITLE12=Feel Like Goin' Home
TTITLE13=?
EXTD=
EXTT0=
EXTT1=
EXTT2=
EXTT3=
EXTT4=
EXTT5=
EXTT6=
EXTT7=
EXTT8=
EXTT9=
EXTT10=
EXTT11=
EXTT12=
EXTT13=
PLAYORDER=
